<?xml version="1.0" encoding="UTF-8"?>
<svg width="700pt" height="700pt" version="1.1" viewBox="0 0 700 700" xmlns="http://www.w3.org/2000/svg" xmlns:xlink="http://www.w3.org/1999/xlink">
 <defs>
  <symbol id="w" overflow="visible">
   <path d="m19.953-1.1875c-1.0312 0.53125-2.1055 0.93359-3.2188 1.2031-1.1172 0.26953-2.2773 0.40625-3.4844 0.40625-3.6172 0-6.4805-1.0078-8.5938-3.0312-2.1172-2.0195-3.1719-4.7578-3.1719-8.2188 0-3.4766 1.0547-6.2266 3.1719-8.25 2.1133-2.0195 4.9766-3.0312 8.5938-3.0312 1.207 0 2.3672 0.14062 3.4844 0.42188 1.1133 0.27344 2.1875 0.67188 3.2188 1.2031v4.4844c-1.043-0.70703-2.0703-1.2227-3.0781-1.5469-1-0.33203-2.0586-0.5-3.1719-0.5-2 0-3.5742 0.64062-4.7188 1.9219-1.1484 1.2812-1.7188 3.0469-1.7188 5.2969 0 2.2422 0.57031 4 1.7188 5.2812 1.1445 1.2734 2.7188 1.9062 4.7188 1.9062 1.1133 0 2.1719-0.16016 3.1719-0.48438 1.0078-0.33203 2.0352-0.85156 3.0781-1.5625z"/>
  </symbol>
  <symbol id="d" overflow="visible">
   <path d="m14.594-11.844c-0.44922-0.21875-0.90234-0.37891-1.3594-0.48438-0.44922-0.10156-0.90234-0.15625-1.3594-0.15625-1.3359 0-2.3672 0.43359-3.0938 1.2969-0.71875 0.85547-1.0781 2.0859-1.0781 3.6875v7.5h-5.2031v-16.281h5.2031v2.6719c0.66406-1.0625 1.4297-1.8359 2.2969-2.3281 0.875-0.48828 1.9141-0.73438 3.125-0.73438 0.17578 0 0.36328 0.007813 0.5625 0.015625 0.20703 0.011719 0.50391 0.042969 0.89062 0.09375z"/>
  </symbol>
  <symbol id="a" overflow="visible">
   <path d="m18.766-8.1875v1.4844h-12.172c0.125 1.2188 0.5625 2.1367 1.3125 2.75 0.75781 0.60547 1.8164 0.90625 3.1719 0.90625 1.0938 0 2.2109-0.16016 3.3594-0.48438 1.1562-0.32031 2.3359-0.8125 3.5469-1.4688v4.0156c-1.2305 0.46094-2.4609 0.80859-3.6875 1.0469-1.2305 0.23828-2.4648 0.35938-3.7031 0.35938-2.9375 0-5.2266-0.75-6.8594-2.25-1.6367-1.5-2.4531-3.5977-2.4531-6.2969 0-2.6562 0.80078-4.7422 2.4062-6.2656 1.6016-1.5195 3.8125-2.2812 6.625-2.2812 2.5625 0 4.6094 0.77344 6.1406 2.3125 1.5391 1.5312 2.3125 3.5898 2.3125 6.1719zm-5.3594-1.7344c0-0.98828-0.29297-1.7852-0.875-2.3906-0.57422-0.60156-1.3242-0.90625-2.25-0.90625-1.0117 0-1.8359 0.28906-2.4688 0.85938-0.625 0.5625-1.0156 1.375-1.1719 2.4375z"/>
  </symbol>
  <symbol id="k" overflow="visible">
   <path d="m9.7969-7.3281c-1.0859 0-1.9023 0.1875-2.4531 0.5625-0.54297 0.36719-0.8125 0.90625-0.8125 1.625 0 0.65625 0.21875 1.1719 0.65625 1.5469 0.44531 0.36719 1.0625 0.54688 1.8438 0.54688 0.97656 0 1.8008-0.34766 2.4688-1.0469 0.66406-0.69531 1-1.5781 1-2.6406v-0.59375zm7.9531-1.9688v9.2969h-5.25v-2.4062c-0.69922 0.98047-1.4844 1.6992-2.3594 2.1562-0.86719 0.44531-1.9219 0.67188-3.1719 0.67188-1.6875 0-3.0586-0.48828-4.1094-1.4688-1.0547-0.98828-1.5781-2.2695-1.5781-3.8438 0-1.9062 0.65625-3.3008 1.9688-4.1875 1.3125-0.89453 3.375-1.3438 6.1875-1.3438h3.0625v-0.40625c0-0.82031-0.32422-1.4258-0.96875-1.8125-0.64844-0.38281-1.6562-0.57812-3.0312-0.57812-1.125 0-2.168 0.11719-3.125 0.34375-0.96094 0.21875-1.8516 0.55469-2.6719 1v-3.9688c1.1133-0.26953 2.2344-0.47266 3.3594-0.60938 1.125-0.14453 2.25-0.21875 3.375-0.21875 2.9375 0 5.0547 0.57812 6.3594 1.7344 1.3008 1.1562 1.9531 3.0391 1.9531 5.6406z"/>
  </symbol>
  <symbol id="c" overflow="visible">
   <path d="m8.1875-20.906v4.625h5.3594v3.7188h-5.3594v6.9062c0 0.76172 0.14844 1.2773 0.45312 1.5469 0.30078 0.26172 0.89453 0.39062 1.7812 0.39062h2.6875v3.7188h-4.4688c-2.0547 0-3.5117-0.42578-4.375-1.2812-0.85547-0.86328-1.2812-2.3203-1.2812-4.375v-6.9062h-2.5938v-3.7188h2.5938v-4.625z"/>
  </symbol>
  <symbol id="e" overflow="visible">
   <path d="m13.578-13.906v-8.7188h5.2344v22.625h-5.2344v-2.3594c-0.71875 0.96094-1.5117 1.6641-2.375 2.1094-0.85547 0.44531-1.8516 0.67188-2.9844 0.67188-2.0117 0-3.6641-0.79688-4.9531-2.3906-1.2812-1.5938-1.9219-3.6445-1.9219-6.1562 0-2.5078 0.64062-4.5625 1.9219-6.1562 1.2891-1.5938 2.9414-2.3906 4.9531-2.3906 1.125 0 2.1172 0.22656 2.9844 0.67188 0.86328 0.44922 1.6562 1.1484 2.375 2.0938zm-3.4219 10.547c1.1133 0 1.9609-0.40625 2.5469-1.2188 0.58203-0.8125 0.875-1.9922 0.875-3.5469 0-1.5508-0.29297-2.7344-0.875-3.5469-0.58594-0.8125-1.4336-1.2188-2.5469-1.2188-1.1055 0-1.9531 0.40625-2.5469 1.2188-0.58594 0.8125-0.875 1.9961-0.875 3.5469 0 1.5547 0.28906 2.7344 0.875 3.5469 0.59375 0.8125 1.4414 1.2188 2.5469 1.2188z"/>
  </symbol>
  <symbol id="j" overflow="visible">
   <path d="m11.172-3.3594c1.1133 0 1.9609-0.40625 2.5469-1.2188 0.58203-0.8125 0.875-1.9922 0.875-3.5469 0-1.5508-0.29297-2.7344-0.875-3.5469-0.58594-0.8125-1.4336-1.2188-2.5469-1.2188-1.1172 0-1.9766 0.41406-2.5781 1.2344-0.59375 0.8125-0.89062 1.9922-0.89062 3.5312 0 1.543 0.29688 2.7266 0.89062 3.5469 0.60156 0.8125 1.4609 1.2188 2.5781 1.2188zm-3.4688-10.547c0.71875-0.94531 1.5156-1.6445 2.3906-2.0938 0.875-0.44531 1.8789-0.67188 3.0156-0.67188 2 0 3.6445 0.79688 4.9375 2.3906 1.2891 1.5938 1.9375 3.6484 1.9375 6.1562 0 2.5117-0.64844 4.5625-1.9375 6.1562-1.293 1.5938-2.9375 2.3906-4.9375 2.3906-1.1367 0-2.1406-0.22656-3.0156-0.67188-0.875-0.45703-1.6719-1.1602-2.3906-2.1094v2.3594h-5.2031v-22.625h5.2031z"/>
  </symbol>
  <symbol id="i" overflow="visible">
   <path d="m0.35938-16.281h5.2031l4.3906 11.047 3.7188-11.047h5.2031l-6.8438 17.828c-0.6875 1.8125-1.4922 3.0781-2.4062 3.7969-0.91797 0.71875-2.1328 1.0781-3.6406 1.0781h-3v-3.4062h1.625c0.88281 0 1.5234-0.14062 1.9219-0.42188 0.40625-0.28125 0.71875-0.78906 0.9375-1.5156l0.15625-0.45312z"/>
  </symbol>
  <symbol id="h" overflow="visible">
   <path d="m2.7344-21.703h5.5938v21.703h-5.5938z"/>
  </symbol>
  <symbol id="g" overflow="visible">
   <path d="m15.656-15.781v4.25c-0.71094-0.48828-1.418-0.84766-2.125-1.0781-0.71094-0.22656-1.4492-0.34375-2.2188-0.34375-1.4609 0-2.5938 0.42969-3.4062 1.2812-0.80469 0.84375-1.2031 2.0273-1.2031 3.5469 0 1.5234 0.39844 2.7109 1.2031 3.5625 0.8125 0.84375 1.9453 1.2656 3.4062 1.2656 0.8125 0 1.582-0.11719 2.3125-0.35938 0.73828-0.25 1.4141-0.60938 2.0312-1.0781v4.25c-0.8125 0.30469-1.6406 0.52344-2.4844 0.67188-0.83594 0.15625-1.6719 0.23438-2.5156 0.23438-2.9375 0-5.2344-0.75-6.8906-2.25-1.6562-1.5078-2.4844-3.6094-2.4844-6.2969s0.82812-4.7812 2.4844-6.2812c1.6562-1.5078 3.9531-2.2656 6.8906-2.2656 0.85156 0 1.6914 0.074219 2.5156 0.21875 0.83203 0.14844 1.6602 0.37109 2.4844 0.67188z"/>
  </symbol>
  <symbol id="b" overflow="visible">
   <path d="m10.25-12.953c-1.1562 0-2.0391 0.41797-2.6406 1.25-0.60547 0.82422-0.90625 2.0156-0.90625 3.5781s0.30078 2.7617 0.90625 3.5938c0.60156 0.82422 1.4844 1.2344 2.6406 1.2344 1.1328 0 2-0.41016 2.5938-1.2344 0.60156-0.83203 0.90625-2.0312 0.90625-3.5938s-0.30469-2.7539-0.90625-3.5781c-0.59375-0.83203-1.4609-1.25-2.5938-1.25zm0-3.7188c2.8008 0 4.9883 0.75781 6.5625 2.2656 1.582 1.5117 2.375 3.6055 2.375 6.2812 0 2.6797-0.79297 4.7734-2.375 6.2812-1.5742 1.5117-3.7617 2.2656-6.5625 2.2656-2.8125 0-5.0117-0.75391-6.5938-2.2656-1.5859-1.5078-2.375-3.6016-2.375-6.2812 0-2.6758 0.78906-4.7695 2.375-6.2812 1.582-1.5078 3.7812-2.2656 6.5938-2.2656z"/>
  </symbol>
  <symbol id="f" overflow="visible">
   <path d="m18.875-9.9219v9.9219h-5.2344v-7.5938c0-1.4062-0.03125-2.375-0.09375-2.9062s-0.17188-0.92188-0.32812-1.1719c-0.21094-0.34375-0.49219-0.60938-0.84375-0.79688-0.34375-0.1875-0.73438-0.28125-1.1719-0.28125-1.0938 0-1.9531 0.42188-2.5781 1.2656-0.61719 0.83594-0.92188 1.9922-0.92188 3.4688v8.0156h-5.2031v-16.281h5.2031v2.375c0.78906-0.94531 1.625-1.6445 2.5-2.0938 0.88281-0.44531 1.8594-0.67188 2.9219-0.67188 1.8828 0 3.3125 0.57812 4.2812 1.7344 0.97656 1.1484 1.4688 2.8203 1.4688 5.0156z"/>
  </symbol>
  <symbol id="v" overflow="visible">
   <path d="m15.219-15.781v3.9531c-1.1172-0.45703-2.1953-0.80078-3.2344-1.0312-1.0312-0.23828-2.0078-0.35938-2.9219-0.35938-0.99219 0-1.7266 0.125-2.2031 0.375-0.48047 0.24219-0.71875 0.62109-0.71875 1.1406 0 0.41797 0.17969 0.74219 0.54688 0.96875 0.36328 0.21875 1.0156 0.38281 1.9531 0.48438l0.90625 0.125c2.6641 0.34375 4.457 0.90625 5.375 1.6875 0.92578 0.77344 1.3906 1.9844 1.3906 3.6406 0 1.7305-0.64062 3.0312-1.9219 3.9062-1.2734 0.875-3.1797 1.3125-5.7188 1.3125-1.0859 0-2.1992-0.089844-3.3438-0.26562-1.1484-0.16406-2.3281-0.41406-3.5469-0.75v-3.9531c1.0391 0.5 2.1016 0.875 3.1875 1.125 1.0938 0.25 2.2031 0.375 3.3281 0.375 1.0195 0 1.7852-0.13281 2.2969-0.40625 0.51953-0.28125 0.78125-0.70312 0.78125-1.2656 0-0.45703-0.17969-0.80078-0.53125-1.0312-0.35547-0.22656-1.0625-0.40625-2.125-0.53125l-0.90625-0.10938c-2.3242-0.28906-3.9492-0.82812-4.875-1.6094-0.92969-0.78906-1.3906-1.9883-1.3906-3.5938 0-1.7188 0.58594-2.9922 1.7656-3.8281 1.1875-0.83203 3-1.25 5.4375-1.25 0.95703 0 1.9609 0.074219 3.0156 0.21875 1.0625 0.13672 2.2109 0.35938 3.4531 0.67188z"/>
  </symbol>
  <symbol id="u" overflow="visible">
   <path d="m2.7344-21.703h15.109v4.2188h-9.5156v4.0469h8.9531v4.2344h-8.9531v9.2031h-5.5938z"/>
  </symbol>
  <symbol id="t" overflow="visible">
   <path d="m2.5-16.281h5.2031v16.281h-5.2031zm0-6.3438h5.2031v4.25h-5.2031z"/>
  </symbol>
  <symbol id="s" overflow="visible">
   <path d="m2.5-22.625h5.2031v22.625h-5.2031z"/>
  </symbol>
  <symbol id="r" overflow="visible">
   <path d="m13.219-22.625v3.4219h-2.875c-0.74219 0-1.2578 0.13672-1.5469 0.40625-0.29297 0.26172-0.4375 0.71875-0.4375 1.375v1.1406h4.4531v3.7188h-4.4531v12.562h-5.2031v-12.562h-2.5938v-3.7188h2.5938v-1.1406c0-1.7695 0.49219-3.0781 1.4844-3.9219 0.98828-0.85156 2.5195-1.2812 4.5938-1.2812z"/>
  </symbol>
  <symbol id="q" overflow="visible">
   <path d="m17.594-13.578c0.65625-1.0078 1.4375-1.7734 2.3438-2.2969 0.90625-0.53125 1.9062-0.79688 3-0.79688 1.8633 0 3.2852 0.57812 4.2656 1.7344 0.97656 1.1484 1.4688 2.8203 1.4688 5.0156v9.9219h-5.2344v-8.5c0.007812-0.125 0.015625-0.25391 0.015625-0.39062 0.007813-0.13281 0.015625-0.32812 0.015625-0.57812 0-1.1562-0.17188-1.9883-0.51562-2.5-0.33594-0.51953-0.88281-0.78125-1.6406-0.78125-0.99219 0-1.7578 0.40625-2.2969 1.2188-0.53125 0.8125-0.80859 1.9922-0.82812 3.5312v8h-5.2344v-8.5c0-1.8008-0.15625-2.957-0.46875-3.4688-0.30469-0.51953-0.85547-0.78125-1.6562-0.78125-1 0-1.7734 0.41406-2.3125 1.2344-0.54297 0.8125-0.8125 1.9805-0.8125 3.5v8.0156h-5.2344v-16.281h5.2344v2.375c0.64453-0.91406 1.3789-1.6016 2.2031-2.0625 0.83203-0.46875 1.75-0.70312 2.75-0.70312 1.125 0 2.1133 0.27344 2.9688 0.8125 0.86328 0.54297 1.5195 1.3047 1.9688 2.2812z"/>
  </symbol>
  <symbol id="p" overflow="visible">
   <path d="m18.875-9.9219v9.9219h-5.2344v-7.5625c0-1.4258-0.03125-2.4062-0.09375-2.9375s-0.17188-0.92188-0.32812-1.1719c-0.21094-0.34375-0.49219-0.60938-0.84375-0.79688-0.34375-0.1875-0.73438-0.28125-1.1719-0.28125-1.0938 0-1.9531 0.42188-2.5781 1.2656-0.61719 0.83594-0.92188 1.9922-0.92188 3.4688v8.0156h-5.2031v-22.625h5.2031v8.7188c0.78906-0.94531 1.625-1.6445 2.5-2.0938 0.88281-0.44531 1.8594-0.67188 2.9219-0.67188 1.8828 0 3.3125 0.57812 4.2812 1.7344 0.97656 1.1484 1.4688 2.8203 1.4688 5.0156z"/>
  </symbol>
  <symbol id="o" overflow="visible">
   <path d="m2.7344-21.703h6.25l7.9062 14.891v-14.891h5.2969v21.703h-6.25l-7.8906-14.891v14.891h-5.3125z"/>
  </symbol>
  <symbol id="n" overflow="visible">
   <path d="m2.3281-6.3438v-9.9375h5.2344v1.625c0 0.88672-0.007812 1.9961-0.015625 3.3281-0.011719 1.3359-0.015625 2.2188-0.015625 2.6562 0 1.3125 0.03125 2.2617 0.09375 2.8438 0.070312 0.57422 0.19141 0.99219 0.35938 1.25 0.20703 0.33594 0.48438 0.59375 0.82812 0.78125s0.73828 0.28125 1.1875 0.28125c1.0938 0 1.9453-0.41406 2.5625-1.25 0.625-0.83203 0.9375-1.9922 0.9375-3.4844v-8.0312h5.2031v16.281h-5.2031v-2.3594c-0.79297 0.94922-1.625 1.6523-2.5 2.1094-0.875 0.44531-1.8438 0.67188-2.9062 0.67188-1.875 0-3.3086-0.57812-4.2969-1.7344-0.98047-1.1562-1.4688-2.832-1.4688-5.0312z"/>
  </symbol>
  <symbol id="m" overflow="visible">
   <path d="m2.7344-21.703h9.2969c2.7578 0 4.8789 0.61719 6.3594 1.8438 1.4766 1.2188 2.2188 2.9648 2.2188 5.2344 0 2.2734-0.74219 4.0234-2.2188 5.25-1.4805 1.2305-3.6016 1.8438-6.3594 1.8438h-3.7031v7.5312h-5.5938zm5.5938 4.0469v6.0625h3.1094c1.082 0 1.9141-0.25781 2.5-0.78125 0.59375-0.53125 0.89062-1.2812 0.89062-2.25s-0.29688-1.7109-0.89062-2.2344c-0.58594-0.53125-1.418-0.79688-2.5-0.79688z"/>
  </symbol>
  <symbol id="l" overflow="visible">
   <path d="m2.5-16.281h5.2031v15.984c0 2.1875-0.52734 3.8516-1.5781 5-1.043 1.1445-2.5586 1.7188-4.5469 1.7188h-2.5625v-3.4062h0.89062c0.98828 0 1.6641-0.22656 2.0312-0.67188 0.375-0.44922 0.5625-1.3281 0.5625-2.6406zm0-6.3438h5.2031v4.25h-5.2031z"/>
  </symbol>
 </defs>
 <g>
  <path d="m214.82 490.54h-1.0117c-0.24609-0.058594-0.47266-0.17969-0.65625-0.35547-0.26172-0.11719-0.50391-0.27734-0.71484-0.47656-0.24219-0.19922-0.44531-0.44141-0.59375-0.71484l-0.35938-0.47656c-5.4336-10.141-14.293-18.02-24.996-22.238-10.703-4.2188-22.555-4.4961-33.445-0.78906s-20.109 11.16-26.016 21.031c-5.9062 9.875-8.1172 21.523-6.2344 32.871 1.8789 11.348 7.7305 21.66 16.508 29.102 8.7734 7.4375 19.906 11.516 31.41 11.512h371.92v-69.402h-325.81z"/>
  <path d="m168.77 454.32c16.043 0.011719 31.344 6.7539 42.18 18.586v-427.39c0.011719-16.199-8.6211-31.172-22.641-39.277-14.023-8.1094-31.305-8.1211-45.336-0.03125-14.035 8.0898-22.684 23.051-22.695 39.25v435.91c10.402-16.793 28.738-27.023 48.492-27.047z"/>
  <path d="m265.05 169.19h116.05v111.82h-116.05z"/>
  <path d="m218.82 36.461c0.52344 2.9688 0.80078 5.9766 0.83594 8.9961v436.5h360.07v-445.5zm41.703 70.715h277.86c2.4023 0 4.3477 1.9453 4.3477 4.3477 0 2.4023-1.9453 4.3477-4.3477 4.3477h-277.68c-2.4023 0-4.3516-1.9453-4.3516-4.3477 0-2.4023 1.9492-4.3477 4.3516-4.3477zm-4.2891 57.727c0-2.3789 1.9102-4.3164 4.2891-4.3477h124.87c1.1523 0 2.2617 0.45703 3.0742 1.2734 0.81641 0.8125 1.2734 1.9219 1.2734 3.0742v120.4c0 1.1562-0.45703 2.2617-1.2734 3.0781-0.8125 0.8125-1.9219 1.2734-3.0742 1.2734h-124.69c-1.1484 0-2.25-0.46094-3.0547-1.2773-0.80859-0.82031-1.2539-1.9258-1.2344-3.0742zm283.75 256.89h-281.37c-2.4023 0-4.3477-1.9492-4.3477-4.3516s1.9453-4.3477 4.3477-4.3477h281.37c2.4023 0 4.3477 1.9453 4.3477 4.3477s-1.9453 4.3516-4.3477 4.3516zm0-39.141h-281.37c-2.3789 0-4.3164-1.9141-4.3477-4.2891 0-2.4023 1.9453-4.3516 4.3477-4.3516h281.37c2.3789 0.035157 4.2891 1.9727 4.2891 4.3516 0 1.1367-0.45313 2.2266-1.2578 3.0312s-1.8945 1.2578-3.0312 1.2578zm0-39.082h-281.37c-2.4023 0-4.3477-1.9492-4.3477-4.3477 0.03125-2.3789 1.9688-4.293 4.3477-4.293h281.37c2.3672 0 4.2891 1.9219 4.2891 4.293 0 2.3789-1.9102 4.3164-4.2891 4.3477zm0-50.34h-124.45c-2.3789 0-4.3164-1.9102-4.3477-4.2891 0-2.4023 1.9453-4.3516 4.3477-4.3516h124.45c2.3789 0.035156 4.2891 1.9727 4.2891 4.3516 0 1.1367-0.45313 2.2266-1.2578 3.0312s-1.8945 1.2578-3.0312 1.2578zm0-41.344-124.45-0.003906c-2.3789 0.003906-4.3164-1.9102-4.3477-4.2891 0-2.3984 1.9453-4.3477 4.3477-4.3477h124.45c2.3789 0.03125 4.2891 1.9688 4.2891 4.3477 0 1.1406-0.45313 2.2305-1.2578 3.0352s-1.8945 1.2539-3.0312 1.2539zm0-41.344-124.45-0.003906c-2.3789 0-4.3164-1.9102-4.3477-4.2891 0-2.4023 1.9453-4.3477 4.3477-4.3477h124.45c2.3789 0.03125 4.2891 1.9688 4.2891 4.3477 0 1.1367-0.45313 2.2305-1.2578 3.0352s-1.8945 1.2539-3.0312 1.2539zm0-41.344-124.45-0.003906c-2.3789 0-4.3164-1.9102-4.3477-4.2891 0-2.4023 1.9453-4.3477 4.3477-4.3477h124.45c2.3789 0.03125 4.2891 1.9688 4.2891 4.3477 0 1.1367-0.45313 2.2266-1.2578 3.0312-0.80469 0.80469-1.8945 1.2578-3.0312 1.2578z"/>
  <use x="120.28125" y="649.363281" xlink:href="#w"/>
  <use x="142.140625" y="649.363281" xlink:href="#d"/>
  <use x="156.832031" y="649.363281" xlink:href="#a"/>
  <use x="177.035156" y="649.363281" xlink:href="#k"/>
  <use x="197.132812" y="649.363281" xlink:href="#c"/>
  <use x="211.375" y="649.363281" xlink:href="#a"/>
  <use x="231.574219" y="649.363281" xlink:href="#e"/>
  <use x="263.269531" y="649.363281" xlink:href="#j"/>
  <use x="284.589844" y="649.363281" xlink:href="#i"/>
  <use x="314.378906" y="649.363281" xlink:href="#h"/>
  <use x="325.460938" y="649.363281" xlink:href="#g"/>
  <use x="343.117188" y="649.363281" xlink:href="#b"/>
  <use x="363.582031" y="649.363281" xlink:href="#f"/>
  <use x="384.789062" y="649.363281" xlink:href="#v"/>
  <use x="412.886719" y="649.363281" xlink:href="#u"/>
  <use x="433.234375" y="649.363281" xlink:href="#t"/>
  <use x="443.445312" y="649.363281" xlink:href="#a"/>
  <use x="463.648438" y="649.363281" xlink:href="#s"/>
  <use x="473.859375" y="649.363281" xlink:href="#e"/>
  <use x="120.28125" y="679.148438" xlink:href="#r"/>
  <use x="133.238281" y="679.148438" xlink:href="#d"/>
  <use x="147.929688" y="679.148438" xlink:href="#b"/>
  <use x="168.394531" y="679.148438" xlink:href="#q"/>
  <use x="209.800781" y="679.148438" xlink:href="#c"/>
  <use x="224.042969" y="679.148438" xlink:href="#p"/>
  <use x="245.246094" y="679.148438" xlink:href="#a"/>
  <use x="275.820312" y="679.148438" xlink:href="#o"/>
  <use x="300.75" y="679.148438" xlink:href="#b"/>
  <use x="321.214844" y="679.148438" xlink:href="#n"/>
  <use x="342.417969" y="679.148438" xlink:href="#f"/>
  <use x="373.996094" y="679.148438" xlink:href="#m"/>
  <use x="395.828125" y="679.148438" xlink:href="#d"/>
  <use x="410.515625" y="679.148438" xlink:href="#b"/>
  <use x="430.980469" y="679.148438" xlink:href="#l"/>
  <use x="441.191406" y="679.148438" xlink:href="#a"/>
  <use x="461.394531" y="679.148438" xlink:href="#g"/>
  <use x="479.050781" y="679.148438" xlink:href="#c"/>
 </g>
</svg>
