<?xml version="1.0" encoding="UTF-8"?>
<svg width="700pt" height="700pt" version="1.1" viewBox="0 0 700 700" xmlns="http://www.w3.org/2000/svg">
 <path d="m350.04-0.015625c-61.008 0-110.84 49.836-110.84 110.84 0 36.172 17.625 68.301 44.605 88.559-66.27 26.355-113.17 90.961-113.17 166.62v37.086h-0.003906c0.007812 3.957 1.3594 7.7969 3.8281 10.887 2.4727 3.0898 5.918 5.2539 9.7734 6.1367 4.5781-87.328 77.406-157.6 165.8-157.6s161.23 70.273 165.8 157.6h0.003906c3.8438-0.89453 7.2734-3.0664 9.7305-6.1562 2.457-3.0898 3.8008-6.918 3.8047-10.867v-37.086c0-75.641-46.867-140.22-113.1-166.59 26.988-20.258 44.605-52.414 44.605-88.594 0-61.008-49.836-110.84-110.84-110.84zm0 297.54c-72.281 0-131.25 58.969-131.25 131.25s58.969 131.25 131.25 131.25 131.25-58.969 131.25-131.25-58.969-131.25-131.25-131.25zm2.6328 62.141c3.0391 0.23047 6.0977 0.73047 9.125 1.5391 24.223 6.4727 40.078 30.168 36.812 55.031-2.625 19.977-17.039 35.852-35.582 41.391v23.445-0.003906c0.10547 4.707-1.6953 9.2617-4.9883 12.629-3.293 3.3633-7.8047 5.2617-12.512 5.2617-4.7109 0-9.2227-1.8984-12.516-5.2617-3.293-3.3672-5.0898-7.9219-4.9844-12.629v-37.836c-0.039063-3.9414 1.2539-7.7773 3.6641-10.891 2.4141-3.1133 5.8086-5.3242 9.6289-6.2695 2.4102-0.90234 4.9922-1.2656 7.5547-1.0586 7.7773 0 13.957-5.5859 14.973-13.297 1.0117-7.7109-3.5977-14.672-11.109-16.68s-14.977 1.7344-17.945 8.9219c-1.7734 4.3125-5.1875 7.7422-9.4961 9.5312-4.3047 1.7891-9.1445 1.793-13.453 0.007813-4.3086-1.7852-7.7305-5.207-9.5078-9.5195-1.7812-4.3086-1.7734-9.1484 0.019531-13.453 8.3789-20.277 29.051-32.469 50.312-30.863z"/>
</svg>
