<?xml version="1.0" encoding="UTF-8"?>
<svg width="700pt" height="700pt" version="1.1" viewBox="0 0 700 700" xmlns="http://www.w3.org/2000/svg">
 <path d="m151.67 96.488c0-21.074 17.082-38.156 38.152-38.156 15.602 0 29.629 9.5 35.426 23.984l3.3438 8.3594c-13.875 10.109-25.207 24.203-32.188 41.395-9.8086 24.148-9.2773 50.086-0.45312 72.48 1.7344 4.4062 5.1836 7.9219 9.5547 9.7422 4.375 1.8203 9.2969 1.7891 13.645-0.082031l139.09-59.875c8.6836-3.7383 12.828-13.695 9.3594-22.492-8.8242-22.402-26.062-41.5-49.754-51.621-18.934-8.0859-39.02-9.1758-57.527-4.4805l-2.5703-6.4219c-11.109-27.773-38.008-45.988-67.922-45.988-40.402 0-73.152 32.754-73.152 73.156v160.18h-5.8359c-9.6641 0-17.5 7.8359-17.5 17.5 0 9.6641 7.8359 17.5 17.5 17.5h5.8359v5.832 0.26562 1.293 0.88281c0 8.7539 0 13.887 0.36328 19.613 3.3125 52.184 31.508 100.37 72.379 131.88-0.32031 0.50391-0.61719 1.0312-0.89062 1.5781l-23.336 46.668c-4.3203 8.6406-0.81641 19.152 7.8281 23.477 8.6445 4.3203 19.156 0.82031 23.477-7.8242l22.582-45.164c18.707 9.4688 39.051 15.703 60.207 17.844 5.707 0.57812 9.1875 0.71094 15.117 0.93359l0.16016 0.003907c17.27 0.64844 34.176 1.0508 49.613 1.0508 15.434 0 32.34-0.40234 49.613-1.0508l0.15625-0.003907c5.9297-0.22266 9.4141-0.35547 15.117-0.93359 21.16-2.1406 41.508-8.375 60.215-17.844l22.582 45.164c4.3242 8.6445 14.836 12.145 23.48 7.8242 8.6445-4.3242 12.145-14.836 7.8242-23.477l-23.332-46.668c-0.27734-0.54688-0.57422-1.0742-0.89453-1.582 40.867-31.508 69.062-79.695 72.375-131.88 0.36328-5.7266 0.36328-10.855 0.36328-19.613v-0.88281c0-1.4023 0-2.8594-0.085938-4.207-0.070312-1.0742-0.17969-2.1367-0.33203-3.1836h6.25c9.6641 0 17.5-7.8359 17.5-17.5 0-9.6641-7.8359-17.5-17.5-17.5h-425.83z"/>
</svg>
